<?xml version="1.0" standalone="no"?>
<!DOCTYPE svg PUBLIC "-//W3C//DTD SVG 20010904//EN"
 "http://www.w3.org/TR/2001/REC-SVG-20010904/DTD/svg10.dtd">
<svg version="1.0" xmlns="http://www.w3.org/2000/svg"
 width="432.000000pt" height="432.000000pt" viewBox="0 0 432.000000 432.000000"
 preserveAspectRatio="xMidYMid meet">
<metadata>
Created by potrace 1.11, written by Peter Selinger 2001-2013
</metadata>
<g transform="translate(0.000000,432.000000) scale(0.100000,-0.100000)"
fill="#000000" stroke="none">
<path d="M2655 3588 c-2 -7 -12 -35 -21 -63 -60 -187 -300 -536 -619 -900
-272 -310 -811 -858 -1015 -1030 -209 -177 -240 -216 -240 -297 0 -71 6 -73
96 -46 69 20 99 23 239 22 131 -1 174 -5 239 -22 44 -12 82 -20 84 -17 10 10
-54 80 -102 112 -55 38 -119 59 -224 75 l-73 11 38 31 c89 73 230 203 412 381
107 105 191 181 186 170 -24 -61 -68 -213 -87 -300 -29 -135 -32 -398 -5 -495
42 -153 118 -263 238 -347 157 -107 261 -139 504 -149 146 -7 335 2 335 16 0
4 -35 11 -77 14 -136 12 -289 52 -390 101 -279 136 -360 394 -238 761 72 217
236 491 386 645 27 28 47 54 44 57 -11 11 -174 -50 -243 -91 -99 -58 -213
-114 -248 -121 -48 -10 -61 12 -40 68 27 69 66 118 326 397 135 145 319 346
410 446 l165 182 78 -77 c241 -238 397 -515 463 -822 28 -129 26 -359 -3 -465
-66 -241 -183 -428 -405 -649 -71 -70 -127 -130 -124 -133 22 -22 264 87 366
165 208 158 391 457 435 710 77 439 -113 922 -537 1367 -93 97 -313 294 -339
303 -5 2 -11 -2 -14 -10z"/>
<path d="M2968 2070 c-73 -230 -244 -499 -398 -625 -284 -234 -415 0 -246 440
31 81 22 77 -28 -14 -128 -226 -191 -489 -157 -653 47 -223 260 -224 484 -2
95 94 187 224 253 359 93 191 128 332 122 490 l-3 90 -27 -85z"/>
</g>
</svg>
